<?xml version="1.0" encoding="UTF-8"?>
<svg version="1.1" xmlns="http://www.w3.org/2000/svg" width="418" height="418">
<path d="M0 0 C1.3921875 1.2375 1.3921875 1.2375 2.8125 2.5 C3.44800781 3.02207031 4.08351563 3.54414062 4.73828125 4.08203125 C8.92560535 7.57541087 12.28392353 11.11902633 15.390625 15.60546875 C16.80132867 17.58455165 16.80132867 17.58455165 18.74609375 19.39453125 C22.81303031 23.53834751 25.70029758 28.62441084 28.8125 33.5 C29.42738281 34.44230469 30.04226563 35.38460937 30.67578125 36.35546875 C43.54817078 57.04833441 48.45293793 84.46647055 44.8125 108.5 C44.69874023 109.31339844 44.58498047 110.12679687 44.46777344 110.96484375 C40.39655038 138.99485006 27.4608742 160.87310958 7.6875 180.875 C7.00606934 181.5659375 6.32463867 182.256875 5.62255859 182.96875 C1.91661637 186.65032884 -1.70300521 189.7640179 -6.1875 192.5 C-6.92871094 192.98082031 -7.66992188 193.46164062 -8.43359375 193.95703125 C-19.25423463 200.65001233 -30.91997787 206.08092286 -43.1875 209.5 C-44.19683594 209.7990625 -45.20617187 210.098125 -46.24609375 210.40625 C-70.21407775 216.39131884 -99.65367898 213.90487843 -122.1875 203.5 C-124.19141865 202.17256344 -126.19159811 200.83946012 -128.1875 199.5 C-129.84804241 198.81822209 -131.51474694 198.15124452 -133.1875 197.5 C-135.15050136 196.37677115 -137.08805145 195.2080853 -139 194 C-139.97582031 193.3915625 -140.95164063 192.783125 -141.95703125 192.15625 C-142.69308594 191.6096875 -143.42914063 191.063125 -144.1875 190.5 C-144.1875 189.84 -144.1875 189.18 -144.1875 188.5 C-144.72375 188.438125 -145.26 188.37625 -145.8125 188.3125 C-151.68423119 186.30374985 -155.62090292 180.99957873 -159.5234375 176.41796875 C-160.90754304 174.8226734 -162.38156179 173.30593821 -163.875 171.8125 C-184.78364442 150.90385558 -193.11481801 121.04905667 -193.6875 92.25 C-193.66721059 84.39376962 -192.42854159 76.77268077 -191 69.0625 C-190.8040625 67.99676758 -190.608125 66.93103516 -190.40625 65.83300781 C-188.48824874 56.36949544 -185.27701117 47.72177909 -180.1875 39.5 C-179.54554688 38.38367188 -178.90359375 37.26734375 -178.2421875 36.1171875 C-172.33429558 25.91499494 -166.04052283 16.22489648 -156.73828125 8.76171875 C-154.95459962 7.35442894 -154.95459962 7.35442894 -152.625 4.9375 C-149.95248288 2.26498288 -147.14783844 -0.15823975 -144.1875 -2.5 C-142.7025 -3.675625 -142.7025 -3.675625 -141.1875 -4.875 C-136.61691366 -8.11335265 -131.51970399 -10.42031273 -126.4921875 -12.8515625 C-123.27083844 -14.39458955 -123.27083844 -14.39458955 -120.68359375 -16.0546875 C-85.01420644 -36.70832334 -30.45882097 -24.93562143 0 0 Z " fill="#232F39" transform="translate(283.1875,115.5)"/>
<path d="M0 0 C1.3921875 1.2375 1.3921875 1.2375 2.8125 2.5 C3.44800781 3.02207031 4.08351563 3.54414062 4.73828125 4.08203125 C8.92560535 7.57541087 12.28392353 11.11902633 15.390625 15.60546875 C16.80132867 17.58455165 16.80132867 17.58455165 18.74609375 19.39453125 C22.81303031 23.53834751 25.70029758 28.62441084 28.8125 33.5 C29.42738281 34.44230469 30.04226563 35.38460937 30.67578125 36.35546875 C43.54817078 57.04833441 48.45293793 84.46647055 44.8125 108.5 C44.69874023 109.31339844 44.58498047 110.12679687 44.46777344 110.96484375 C40.39655038 138.99485006 27.4608742 160.87310958 7.6875 180.875 C7.00606934 181.5659375 6.32463867 182.256875 5.62255859 182.96875 C1.91661637 186.65032884 -1.70300521 189.7640179 -6.1875 192.5 C-6.92871094 192.98082031 -7.66992188 193.46164062 -8.43359375 193.95703125 C-19.25423463 200.65001233 -30.91997787 206.08092286 -43.1875 209.5 C-44.19683594 209.7990625 -45.20617187 210.098125 -46.24609375 210.40625 C-70.21407775 216.39131884 -99.65367898 213.90487843 -122.1875 203.5 C-124.19141865 202.17256344 -126.19159811 200.83946012 -128.1875 199.5 C-129.84804241 198.81822209 -131.51474694 198.15124452 -133.1875 197.5 C-135.15050136 196.37677115 -137.08805145 195.2080853 -139 194 C-139.97582031 193.3915625 -140.95164063 192.783125 -141.95703125 192.15625 C-142.69308594 191.6096875 -143.42914063 191.063125 -144.1875 190.5 C-144.1875 189.84 -144.1875 189.18 -144.1875 188.5 C-144.72375 188.438125 -145.26 188.37625 -145.8125 188.3125 C-151.68423119 186.30374985 -155.62090292 180.99957873 -159.5234375 176.41796875 C-160.90754304 174.8226734 -162.38156179 173.30593821 -163.875 171.8125 C-184.78364442 150.90385558 -193.11481801 121.04905667 -193.6875 92.25 C-193.66721059 84.39376962 -192.42854159 76.77268077 -191 69.0625 C-190.8040625 67.99676758 -190.608125 66.93103516 -190.40625 65.83300781 C-188.48824874 56.36949544 -185.27701117 47.72177909 -180.1875 39.5 C-179.54554688 38.38367188 -178.90359375 37.26734375 -178.2421875 36.1171875 C-172.33429558 25.91499494 -166.04052283 16.22489648 -156.73828125 8.76171875 C-154.95459962 7.35442894 -154.95459962 7.35442894 -152.625 4.9375 C-149.95248288 2.26498288 -147.14783844 -0.15823975 -144.1875 -2.5 C-142.7025 -3.675625 -142.7025 -3.675625 -141.1875 -4.875 C-136.61691366 -8.11335265 -131.51970399 -10.42031273 -126.4921875 -12.8515625 C-123.27083844 -14.39458955 -123.27083844 -14.39458955 -120.68359375 -16.0546875 C-85.01420644 -36.70832334 -30.45882097 -24.93562143 0 0 Z M-144.1875 10.5 C-145.00992188 11.18835938 -145.83234375 11.87671875 -146.6796875 12.5859375 C-156.21791631 20.81674554 -164.32827945 30.30984927 -170.1875 41.5 C-170.76242188 42.59699219 -171.33734375 43.69398438 -171.9296875 44.82421875 C-178.28136599 57.43374217 -182.88606691 71.29718227 -183.1875 85.5 C-183.22246582 86.21430176 -183.25743164 86.92860352 -183.29345703 87.66455078 C-184.65946343 116.14492683 -175.40861801 144.19547409 -156.1875 165.5 C-155.14335937 166.75683594 -155.14335937 166.75683594 -154.078125 168.0390625 C-141.84642812 182.45817962 -126.04210831 191.72859513 -108.1875 197.5 C-105.22821071 198.47810044 -102.29061675 199.46104478 -99.375 200.5625 C-80.21518309 206.19774027 -53.21395529 204.77303161 -35.1875 196.5 C-34.10831299 196.01853516 -34.10831299 196.01853516 -33.00732422 195.52734375 C-24.97667317 191.88920737 -17.28815221 187.75253725 -10.1875 182.5 C-9.47722656 181.99210938 -8.76695312 181.48421875 -8.03515625 180.9609375 C4.92927393 171.34584166 18.17807122 157.80316024 24.0625 142.44140625 C24.81076598 140.50448858 25.73298326 138.80758834 26.75 137 C37.37152797 116.17843326 38.45675233 86.13986855 32.01171875 63.91015625 C30.16097244 58.64728481 28.19567341 53.54589795 25.8125 48.5 C25.16861328 47.04207031 25.16861328 47.04207031 24.51171875 45.5546875 C20.67352924 37.27284759 15.5665287 30.50811188 9.8125 23.5 C9.214375 22.7471875 8.61625 21.994375 8 21.21875 C3.28045636 15.50084135 -2.3382739 11.01836286 -8.1875 6.5 C-8.8990625 5.91476563 -9.610625 5.32953125 -10.34375 4.7265625 C-49.63024878 -25.59236591 -107.49228122 -21.00361226 -144.1875 10.5 Z " fill="#5BAFE1" transform="translate(283.1875,115.5)"/>
<path d="M0 0 C7.26 0 14.52 0 22 0 C24.37262162 4.74524324 26.67254292 9.39267685 28.8046875 14.23046875 C29.55685547 15.93106445 29.55685547 15.93106445 30.32421875 17.66601562 C30.83597656 18.82810547 31.34773438 19.99019531 31.875 21.1875 C35.40398576 29.18864035 38.97453789 37.16379353 42.67700195 45.08642578 C44.31958878 48.70381481 45.80183437 52.37097383 47.23828125 56.07421875 C47.98271516 58.037834 47.98271516 58.037834 49 60 C49.33 40.2 49.66 20.4 50 0 C56.93 0 63.86 0 71 0 C71 37.29 71 74.58 71 113 C64.07 113 57.14 113 50 113 C49.360625 111.4325 48.72125 109.865 48.0625 108.25 C43.16918559 96.52267991 38.03974983 84.87653078 32.25 73.5625 C29.01037075 67.20350616 26.45782034 60.69226738 24 54 C23.34 52.35 22.68 50.7 22 49 C21.67 70.12 21.34 91.24 21 113 C14.07 113 7.14 113 0 113 C0 75.71 0 38.42 0 0 Z " fill="#4C99CA" transform="translate(139,153)"/>
<path d="M0 0 C21.12 0 42.24 0 64 0 C64 10.89 64 21.78 64 33 C57.4 33 50.8 33 44 33 C44 28.71 44 24.42 44 20 C36.41 20 28.82 20 21 20 C20.23303919 29.64009183 20.23303919 29.64009183 24.36328125 37.80078125 C27.17302938 39.93870916 29.98862717 41.87774679 32.98779297 43.73144531 C35.87425905 45.5511587 38.63157144 47.53817704 41.40625 49.52270508 C43.44849189 50.98108592 45.5058927 52.41526861 47.56640625 53.84765625 C48.58710205 54.60985474 48.58710205 54.60985474 49.62841797 55.38745117 C52.05473773 57.12252438 52.05473773 57.12252438 55.17236328 58.52856445 C58.8243616 60.55832086 61.85541228 62.37505381 64 66 C66.00169069 73.76111827 65.11424044 82.15477557 64.75 90.0625 C64.37875 101.4165625 64.37875 101.4165625 64 113 C42.88 113 21.76 113 0 113 C0 101.78 0 90.56 0 79 C6.93 79 13.86 79 21 79 C21 83.62 21 88.24 21 93 C28.59 93 36.18 93 44 93 C44.82067716 83.81345752 44.82067716 83.81345752 41.82177734 75.35742188 C38.32523814 71.93423664 34.18746544 69.48750814 30 67 C28.49475769 66.00790848 26.99396965 65.00898696 25.5 64 C24.45005859 63.319375 24.45005859 63.319375 23.37890625 62.625 C18.66753694 59.40672474 14.16663171 55.85763057 9.71861267 52.28567505 C7.9925614 50.94397859 7.9925614 50.94397859 5.95436096 49.80392456 C2.8113141 47.85138619 0.42158212 46.36479849 -0.7021637 42.72686768 C-0.92539997 39.97608359 -0.90117168 37.3273308 -0.78125 34.5703125 C-0.77319336 33.69173584 -0.76513672 32.81315918 -0.75683594 31.90795898 C-0.71517981 28.64611503 -0.60348512 25.38546808 -0.5 22.125 C-0.335 14.82375 -0.17 7.5225 0 0 Z " fill="#4C98C9" transform="translate(216,153)"/>
<path d="M0 0 C0.99 0 1.98 0 3 0 C-1.76360324 15.82282282 -12.82860352 27.94658353 -24.1875 39.4375 C-24.86490234 40.12440918 -25.54230469 40.81131836 -26.24023438 41.51904297 C-29.92920289 45.18357523 -33.53726103 48.27485407 -38 51 C-38.74121094 51.48082031 -39.48242188 51.96164062 -40.24609375 52.45703125 C-51.06673463 59.15001233 -62.73247787 64.58092286 -75 68 C-76.00933594 68.2990625 -77.01867187 68.598125 -78.05859375 68.90625 C-102.02657775 74.89131884 -131.46617898 72.40487843 -154 62 C-156.00391865 60.67256344 -158.00409811 59.33946012 -160 58 C-161.66054241 57.31822209 -163.32724694 56.65124452 -165 56 C-166.96300136 54.87677115 -168.90055145 53.7080853 -170.8125 52.5 C-171.78832031 51.8915625 -172.76414063 51.283125 -173.76953125 50.65625 C-174.50558594 50.1096875 -175.24164063 49.563125 -176 49 C-176 48.34 -176 47.68 -176 47 C-176.53625 46.938125 -177.0725 46.87625 -177.625 46.8125 C-183.49673119 44.80374985 -187.43340292 39.49957873 -191.3359375 34.91796875 C-192.72004304 33.3226734 -194.19406179 31.80593821 -195.6875 30.3125 C-199.59759416 26.40240584 -202.76905631 22.04431266 -205.8125 17.4375 C-206.43769531 16.50808594 -207.06289062 15.57867187 -207.70703125 14.62109375 C-209 12 -209 12 -208.69921875 9.66015625 C-208.46847656 9.11230469 -208.23773438 8.56445312 -208 8 C-208 8.99 -208 9.98 -208 11 C-207.34 11 -206.68 11 -206 11 C-206 11.66 -206 12.32 -206 13 C-205.01 13.33 -204.02 13.66 -203 14 C-201.83203125 15.77734375 -201.83203125 15.77734375 -200.8125 17.9375 C-200.46832031 18.64777344 -200.12414062 19.35804688 -199.76953125 20.08984375 C-199 22 -199 22 -199 24 C-198.360625 24.2475 -197.72125 24.495 -197.0625 24.75 C-195 26 -195 26 -194.25 28.125 C-194.12625 29.053125 -194.12625 29.053125 -194 30 C-193.34 30 -192.68 30 -192 30 C-191.34 30.99 -190.68 31.98 -190 33 C-189.01 33 -188.02 33 -187 33 C-186.34 31.35 -185.68 29.7 -185 28 C-181.07205069 30.87709534 -177.20627641 33.76678995 -173.5625 37 C-162.04516127 46.94209733 -148.52781443 52.92371164 -134 57 C-133.071875 57.34417969 -132.14375 57.68835938 -131.1875 58.04296875 C-112.10683599 63.77184459 -84.96496849 62.24481296 -67 54 C-65.92081299 53.51853516 -65.92081299 53.51853516 -64.81982422 53.02734375 C-56.78986053 49.38951876 -49.09848356 45.25454154 -42 40 C-41.278125 39.48050781 -40.55625 38.96101563 -39.8125 38.42578125 C-28.40017661 29.92597789 -20.09660302 19.54458606 -12 8 C-11.01 8.99 -11.01 8.99 -10 10 C-10.50789062 10.61746094 -11.01578125 11.23492187 -11.5390625 11.87109375 C-19.4960845 21.20203853 -19.4960845 21.20203853 -25 32 C-23.68 32 -22.36 32 -21 32 C-19.31865712 29.64225405 -19.31865712 29.64225405 -18 27 C-16.78084942 25.78084942 -15.53610042 24.58580395 -14.25 23.4375 C-7.94323927 16.60517588 -3.97308379 8.32656922 0 0 Z " fill="#39709E" transform="translate(315,257)"/>
<path d="M0 0 C0.99 0.33 1.98 0.66 3 1 C3.33 1.99 3.66 2.98 4 4 C4.99 4.33 5.98 4.66 7 5 C9.79473755 8.01831656 10.71680754 11.15042262 12 15 C14.0745356 16.2236068 14.0745356 16.2236068 17 16 C18.09438842 18.07810835 19.17518318 20.16178447 20.25 22.25 C20.85328125 23.41015625 21.4565625 24.5703125 22.078125 25.765625 C26.71930577 35.52901872 28.90482177 45.51967342 30.3125 56.1875 C30.48201172 57.46689453 30.65152344 58.74628906 30.82617188 60.06445312 C32.00477743 69.63395418 32.47031563 78.45382352 31 88 C30.87560547 88.83998535 30.75121094 89.6799707 30.62304688 90.54541016 C28.97171106 101.2579712 26.92020828 111.26040739 22 121 C20.68 121 19.36 121 18 121 C17.71382813 121.72960937 17.42765625 122.45921875 17.1328125 123.2109375 C8.60984183 144.19507909 8.60984183 144.19507909 1 148 C-0.11634152 149.65051288 -0.11634152 149.65051288 -1.125 151.5625 C-1.74375 152.696875 -2.3625 153.83125 -3 155 C-4.65 154.34 -6.3 153.68 -8 153 C-4.91581562 146.5565162 -0.77133907 140.88906169 3.8125 135.4375 C6.58900843 131.94272091 7.45751371 129.67966649 7.64453125 125.12890625 C8.10968058 122.34312181 9.30082464 120.48265936 10.75 118.0625 C13.55146025 113.24263827 15.27961045 108.51194258 16.8125 103.1875 C17.01907227 102.47021729 17.22564453 101.75293457 17.43847656 101.01391602 C23.96624412 77.4673259 21.37893297 49.90437597 11 28 C10.5359375 26.98164063 10.071875 25.96328125 9.59375 24.9140625 C6.44488754 18.26460294 2.77544817 12.59490377 -2 7 C-1.34 6.67 -0.68 6.34 0 6 C0 4.02 0 2.04 0 0 Z " fill="#4E99C9" transform="translate(297,136)"/>
<path d="M0 0 C0.33 0.99 0.66 1.98 1 3 C1.4125 2.484375 1.825 1.96875 2.25 1.4375 C2.8275 0.963125 3.405 0.48875 4 0 C6.1875 0.3125 6.1875 0.3125 8 1 C8 1.66 8 2.32 8 3 C7.01 3.495 7.01 3.495 6 4 C5.87625 4.70125 5.7525 5.4025 5.625 6.125 C5 9 5 9 3.0625 12.25 C1.10724639 15.53678832 0.27567565 18.4846148 -0.43359375 22.22265625 C-1.02169417 25.10637626 -1.75768305 27.93634842 -2.51269531 30.78027344 C-4.37189516 37.86372577 -5.76713256 44.66467566 -6 52 C-6.03641602 52.71720215 -6.07283203 53.4344043 -6.11035156 54.17333984 C-7.1087153 75.06766663 -2.56370115 93.94662405 7.1875 112.4375 C7.57043213 113.16469238 7.95336426 113.89188477 8.34790039 114.64111328 C11.86768409 121.1187767 16.13293537 126.46409985 21 132 C23 135 23 135 22.625 138.1875 C22.41875 139.115625 22.2125 140.04375 22 141 C20.68 141.33 19.36 141.66 18 142 C17.01 140.02 17.01 140.02 16 138 C15.34 138 14.68 138 14 138 C12.98648336 136.34151823 11.98879205 134.67334039 11 133 C10.01 132.071875 10.01 132.071875 9 131.125 C7.09207503 129.09782972 6.39101822 127.83201993 5.375 125.3125 C4.39177364 121.92312274 4.39177364 121.92312274 2 121 C2 120.34 2 119.68 2 119 C0.68 119 -0.64 119 -2 119 C-16.06151738 92.70050496 -20.24394598 64.87731348 -14.8125 35.5625 C-14.51859375 33.96390137 -14.51859375 33.96390137 -14.21875 32.33300781 C-11.75896049 20.19628566 -6.88122759 10.20319953 0 0 Z " fill="#4A90BF" transform="translate(107,149)"/>
<path d="M0 0 C0 0.33 0 0.66 0 1 C-1.65 1.33 -3.3 1.66 -5 2 C-5 2.66 -5 3.32 -5 4 C-4.01 4.33 -3.02 4.66 -2 5 C-2 5.99 -2 6.98 -2 8 C-3.01578125 8.23074219 -4.0315625 8.46148437 -5.078125 8.69921875 C-12.83353688 10.51723334 -20.00212388 12.65774474 -27.30859375 15.8984375 C-31.126728 17.46115718 -34.96057645 18.25075208 -39 19 C-39.70125 19.20109375 -40.4025 19.4021875 -41.125 19.609375 C-43 20 -43 20 -45 19 C-45.375 16.25 -45.375 16.25 -45 13 C-42.95188676 11.22137534 -41.36787314 10.22182254 -39 9 C-38.27296875 8.56429687 -37.5459375 8.12859375 -36.796875 7.6796875 C-31.08063652 4.45277868 -26.40668749 3.52158539 -19.88671875 3.24609375 C-16.33454386 2.94326964 -13.42548722 1.88018806 -10.11328125 0.6328125 C-6.68675391 -0.39324559 -3.55186176 -0.19373791 0 0 Z " fill="#5CB5E7" transform="translate(194,94)"/>
<path d="M0 0 C0.33 0 0.66 0 1 0 C1 15.51 1 31.02 1 47 C-20.12 47 -41.24 47 -63 47 C-63 35.78 -63 24.56 -63 13 C-56.07 13 -49.14 13 -42 13 C-42 17.62 -42 22.24 -42 27 C-34.41 27 -26.82 27 -19 27 C-19 21.72 -19 16.44 -19 11 C-18.505 12.98 -18.505 12.98 -18 15 C-17.34 15.33 -16.68 15.66 -16 16 C-16.020625 16.928125 -16.04125 17.85625 -16.0625 18.8125 C-16.15769604 22.02286011 -16.15769604 22.02286011 -15 25 C-15.66 25.99 -16.32 26.98 -17 28 C-19.61376953 28.34057617 -19.61376953 28.34057617 -22.8828125 28.29296875 C-24.04941406 28.28330078 -25.21601563 28.27363281 -26.41796875 28.26367188 C-27.64128906 28.23853516 -28.86460937 28.21339844 -30.125 28.1875 C-31.35605469 28.17396484 -32.58710938 28.16042969 -33.85546875 28.14648438 C-36.90383082 28.1110383 -39.95196909 28.05723007 -43 28 C-43 23.38 -43 18.76 -43 14 C-49.27 14 -55.54 14 -62 14 C-61.67 24.56 -61.34 35.12 -61 46 C-58.53789062 45.9278125 -56.07578125 45.855625 -53.5390625 45.78125 C-51.08627993 45.711137 -48.63347387 45.64190677 -46.18066406 45.57275391 C-44.50908824 45.52516797 -42.83753719 45.47670136 -41.16601562 45.42724609 C-38.72792805 45.35527845 -36.28977069 45.28650001 -33.8515625 45.21875 C-32.63838348 45.18322021 -32.63838348 45.18322021 -31.4006958 45.14697266 C-27.2167351 45.03644471 -23.0472775 44.99698099 -18.86230469 45.07421875 C-18.0387851 45.08682739 -17.2152655 45.09943604 -16.36679077 45.11242676 C-14.79945346 45.14097621 -13.23228001 45.18225307 -11.66567993 45.23815918 C-7.54721886 45.35528378 -7.54721886 45.35528378 -4.00244141 43.49023438 C-3.67163574 42.99845703 -3.34083008 42.50667969 -3 42 C-2.67 42.66 -2.34 43.32 -2 44 C-1.34 44 -0.68 44 0 44 C0 29.48 0 14.96 0 0 Z " fill="#457AA4" transform="translate(279,219)"/>
<path d="M0 0 C21.12 0 42.24 0 64 0 C64 10.89 64 21.78 64 33 C57.73 33 51.46 33 45 33 C45 28.38 45 23.76 45 19 C45.33 19 45.66 19 46 19 C46.04898438 19.85464844 46.09796875 20.70929688 46.1484375 21.58984375 C46.22320312 22.69457031 46.29796875 23.79929688 46.375 24.9375 C46.47941406 26.59072266 46.47941406 26.59072266 46.5859375 28.27734375 C46.79089844 29.62505859 46.79089844 29.62505859 47 31 C47.66 31.33 48.32 31.66 49 32 C49.33 30.68 49.66 29.36 50 28 C50.66 28.33 51.32 28.66 52 29 C52 29.99 52 30.98 52 32 C53.4800841 31.88637738 54.95910074 31.75877092 56.4375 31.625 C57.26121094 31.55539063 58.08492188 31.48578125 58.93359375 31.4140625 C59.61550781 31.27742188 60.29742187 31.14078125 61 31 C62.23258173 28.53483654 62.12930518 26.8870571 62.1328125 24.1328125 C62.13410156 23.16472656 62.13539063 22.19664062 62.13671875 21.19921875 C62.13091797 19.67748047 62.13091797 19.67748047 62.125 18.125 C62.12886719 17.11824219 62.13273437 16.11148438 62.13671875 15.07421875 C62.13542969 14.10355469 62.13414062 13.13289062 62.1328125 12.1328125 C62.13112061 10.80080811 62.13112061 10.80080811 62.12939453 9.44189453 C62.00819205 7.1545979 61.64184456 5.19195971 61 3 C55.10217988 1.71457767 49.25992091 1.87378139 43.2578125 1.90234375 C42.13430389 1.9037587 41.01079529 1.90517365 39.85324097 1.90663147 C36.27713317 1.91221336 32.70108877 1.92476259 29.125 1.9375 C26.69531341 1.94251734 24.26562583 1.94707984 21.8359375 1.95117188 C15.89060349 1.96217686 9.94530628 1.97889699 4 2 C3.67 2.99 3.34 3.98 3 5 C3.66 5.66 4.32 6.32 5 7 C4.34 7.66 3.68 8.32 3 9 C2.87598012 11.51367122 2.86553336 13.92794462 2.9375 16.4375 C3.04295698 23.16843812 2.88284155 29.84143311 2.5 36.5625 C2.45222412 37.40159912 2.40444824 38.24069824 2.35522461 39.10522461 C2.24042548 41.0703639 2.12077688 43.03521904 2 45 C1.34 45 0.68 45 0 45 C0 30.15 0 15.3 0 0 Z " fill="#5AA0CA" transform="translate(216,153)"/>
<path d="M0 0 C0.99 0.99 1.98 1.98 3 3 C2.01 3.495 2.01 3.495 1 4 C0.62690101 5.65821773 0.29299023 7.32577014 0 9 C-0.33 9.33 -0.66 9.66 -1 10 C-1.16218587 11.60083461 -1.27849417 13.20636728 -1.375 14.8125 C-1.70624871 19.02098767 -2.41137557 22.81634062 -3.5625 26.875 C-7.85281074 43.48402474 -2.70344924 60.94236436 2 77 C2.13019531 77.7321875 2.26039062 78.464375 2.39453125 79.21875 C2.59433594 79.8065625 2.79414062 80.394375 3 81 C3.99 81.33 4.98 81.66 6 82 C6.103125 82.721875 6.20625 83.44375 6.3125 84.1875 C7.13850956 87.56663003 8.50889081 90.50889081 11 93 C11.04063832 94.66617115 11.042721 96.33388095 11 98 C7.69803142 94.93405282 6.00383213 91.34942582 4.125 87.3125 C3.77421387 86.56154053 3.42342773 85.81058105 3.06201172 85.03686523 C-3.15784444 71.36891006 -7.4163101 56.96799704 -7.25 41.875 C-7.24250732 40.96411621 -7.23501465 40.05323242 -7.22729492 39.11474609 C-7.01064497 25.29998321 -4.87092992 12.93956955 0 0 Z " fill="#254359" transform="translate(107,170)"/>
<path d="M0 0 C0.70801758 0.34111816 1.41603516 0.68223633 2.14550781 1.03369141 C3.796875 2.0234375 3.796875 2.0234375 4.796875 4.0234375 C0.65052773 3.50514409 -2.50783851 1.96451509 -6.16015625 0.06640625 C-9.10939392 -1.43922751 -12.14915438 -2.69944751 -15.203125 -3.9765625 C-16.21375 -4.4715625 -17.224375 -4.9665625 -18.265625 -5.4765625 C-25.65939187 -8.65252145 -34.18825074 -10.2327457 -42.203125 -9.9765625 C-42.203125 -10.6365625 -42.203125 -11.2965625 -42.203125 -11.9765625 C-42.91855469 -11.79996094 -43.63398438 -11.62335938 -44.37109375 -11.44140625 C-47.32041707 -10.95731042 -49.56656752 -11.13362044 -52.515625 -11.5390625 C-57.69316168 -12.09503959 -61.22841176 -11.38606458 -66.203125 -9.9765625 C-68.53616444 -9.93953013 -70.87027742 -9.92895337 -73.203125 -9.9765625 C-73.533125 -9.6465625 -73.863125 -9.3165625 -74.203125 -8.9765625 C-76.05204446 -8.74292369 -77.90800531 -8.56352615 -79.765625 -8.4140625 C-81.28349609 -8.28837891 -81.28349609 -8.28837891 -82.83203125 -8.16015625 C-83.61449219 -8.09957031 -84.39695313 -8.03898437 -85.203125 -7.9765625 C-85.203125 -7.3165625 -85.203125 -6.6565625 -85.203125 -5.9765625 C-87.843125 -5.9765625 -90.483125 -5.9765625 -93.203125 -5.9765625 C-63.42427666 -21.36120033 -28.58064384 -13.77979655 0 0 Z " fill="#264860" transform="translate(263.203125,113.9765625)"/>
<path d="M0 0 C0.33 0 0.66 0 1 0 C1 37.29 1 74.58 1 113 C-5.93 113 -12.86 113 -20 113 C-20.495 110.03 -20.495 110.03 -21 107 C-20.566875 107.66 -20.13375 108.32 -19.6875 109 C-15.4814925 112.1300521 -11.07483844 111.4390995 -6 111 C-3.525 110.505 -3.525 110.505 -1 110 C-0.67 73.7 -0.34 37.4 0 0 Z " fill="#45789B" transform="translate(209,153)"/>
<path d="M0 0 C0.33 0 0.66 0 1 0 C1.16800441 6.65673724 1.32793562 13.31363286 1.48217773 19.97070312 C1.53564249 22.23669863 1.59097521 24.50265085 1.64819336 26.76855469 C1.7299795 30.02008731 1.80511006 33.27171497 1.87890625 36.5234375 C1.90594131 37.54118256 1.93297638 38.55892761 1.96083069 39.60751343 C1.98092697 40.54833771 2.00102325 41.48916199 2.02172852 42.45849609 C2.04171402 43.28900482 2.06169952 44.11951355 2.08229065 44.97518921 C2 47 2 47 1 49 C6.61 49 12.22 49 18 49 C18.81797538 42.64790996 19.09205957 36.52253432 19 30.125 C18.92035394 20.05067813 19.35670942 10.0514153 20 0 C20.33 0 20.66 0 21 0 C21 16.83 21 33.66 21 51 C14.07 51 7.14 51 0 51 C0 34.17 0 17.34 0 0 Z " fill="#43779D" transform="translate(139,215)"/>
<path d="M0 0 C1.95292969 0.2784375 1.95292969 0.2784375 3.9453125 0.5625 C4.91210938 0.706875 5.87890625 0.85125 6.875 1 C6.875 1.33 6.875 1.66 6.875 2 C5.5152002 2.03758423 5.5152002 2.03758423 4.12792969 2.07592773 C0.70596999 2.17209675 -2.7158779 2.27125287 -6.13769531 2.37231445 C-7.60771396 2.41514455 -9.07776601 2.45684581 -10.54785156 2.49731445 C-27.58642455 2.57724504 -27.58642455 2.57724504 -44.01171875 6.3671875 C-47.43824609 7.39324559 -50.57313824 7.19373791 -54.125 7 C-48.46679712 1.34179712 -37.69010059 1.1909349 -30.125 0.3125 C-29.10921875 0.18294922 -28.0934375 0.05339844 -27.046875 -0.08007812 C-17.85167117 -1.19411243 -9.16561106 -1.33317979 0 0 Z " fill="#508AB1" transform="translate(223.125,91)"/>
<path d="M0 0 C0.495 1.98 0.495 1.98 1 4 C1.66 4.33 2.32 4.66 3 5 C2.979375 5.928125 2.95875 6.85625 2.9375 7.8125 C2.84230396 11.02286011 2.84230396 11.02286011 4 14 C3.34 14.99 2.68 15.98 2 17 C-0.61376953 17.34057617 -0.61376953 17.34057617 -3.8828125 17.29296875 C-5.04941406 17.28330078 -6.21601563 17.27363281 -7.41796875 17.26367188 C-8.64128906 17.23853516 -9.86460937 17.21339844 -11.125 17.1875 C-12.35605469 17.17396484 -13.58710938 17.16042969 -14.85546875 17.14648438 C-17.90383082 17.1110383 -20.95196909 17.05723007 -24 17 C-24 12.38 -24 7.76 -24 3 C-30.27 3 -36.54 3 -43 3 C-43 13.89 -43 24.78 -43 36 C-43.33 36 -43.66 36 -44 36 C-44 24.78 -44 13.56 -44 2 C-37.07 2 -30.14 2 -23 2 C-23 6.62 -23 11.24 -23 16 C-15.41 16 -7.82 16 0 16 C0 10.72 0 5.44 0 0 Z " fill="#3B6384" transform="translate(260,230)"/>
<path d="M0 0 C-1.33926124 4.01778372 -3.49134469 4.78023848 -7 7 C-7.66 7.66 -8.32 8.32 -9 9 C-9.99 9 -10.98 9 -12 9 C-12.2475 9.928125 -12.495 10.85625 -12.75 11.8125 C-14.14935617 15.38085822 -14.87410171 15.9723903 -18 18 C-22.56706183 21.6210276 -26.39978106 25.41790317 -30 30 C-30.99 29.67 -31.98 29.34 -33 29 C-10.78723404 0 -10.78723404 0 0 0 Z " fill="#284A61" transform="translate(154,116)"/>
<path d="M0 0 C0.33 0 0.66 0 1 0 C1.33 11.22 1.66 22.44 2 34 C1.01 34.495 1.01 34.495 0 35 C-1.74743665 37.87215042 -2.33421361 40.44929831 -2.8125 43.75 C-3.75486704 48.83124305 -5.57885379 53.07445403 -9 57 C-9.66 57 -10.32 57 -11 57 C-10.09664055 54.2146417 -9.17256357 51.44668003 -8.1171875 48.71484375 C-1.8497816 32.35543385 -0.25304107 17.41620588 0 0 Z " fill="#4988B0" transform="translate(318,201)"/>
<path d="M0 0 C0.99 0.99 1.98 1.98 3 3 C2.01 3.495 2.01 3.495 1 4 C0.62690101 5.65821773 0.29299023 7.32577014 0 9 C-0.33 9.33 -0.66 9.66 -1 10 C-1.16218587 11.60083461 -1.27849417 13.20636728 -1.375 14.8125 C-1.69961558 18.9016091 -2.35666613 22.56493342 -3.5 26.5 C-5.75884912 34.83019479 -5.73974819 43.42066434 -6 52 C-6.33 52 -6.66 52 -7 52 C-7.34653288 33.72438913 -6.49179668 17.24538354 0 0 Z " fill="#2C5068" transform="translate(107,170)"/>
<path d="M0 0 C0 0.33 0 0.66 0 1 C-1.07378906 1.13277344 -2.14757812 1.26554687 -3.25390625 1.40234375 C-4.69010833 1.58069564 -6.12630601 1.75908295 -7.5625 1.9375 C-8.26697266 2.02451172 -8.97144531 2.11152344 -9.69726562 2.20117188 C-17.66840278 3.15748041 -17.66840278 3.15748041 -25.57421875 4.52734375 C-28.3185714 5.06207269 -31.02704145 5.32758181 -33.8125 5.5625 C-34.78832031 5.64628906 -35.76414063 5.73007813 -36.76953125 5.81640625 C-37.50558594 5.87699219 -38.24164063 5.93757813 -39 6 C-39 6.66 -39 7.32 -39 8 C-41.64 8 -44.28 8 -47 8 C-32.20729293 0.35764801 -16.28695017 -0.47335593 0 0 Z " fill="#305772" transform="translate(217,100)"/>
<path d="M0 0 C7.16959201 5.32598264 11.48978246 12.09434801 16.328125 19.48828125 C17.77501495 21.84062171 17.77501495 21.84062171 19 23 C19.04063832 24.66617115 19.042721 26.33388095 19 28 C18.67 27.34 18.34 26.68 18 26 C17.34 25.67 16.68 25.34 16 25 C14.9296875 23.44140625 14.9296875 23.44140625 13.875 21.5625 C13.52179688 20.94503906 13.16859375 20.32757813 12.8046875 19.69140625 C12 18 12 18 12 16 C11.01 15.67 10.02 15.34 9 15 C8.01 14.67 7.02 14.34 6 14 C5.15625 12.0390625 5.15625 12.0390625 4.5 9.625 C3.55078154 6.15583254 2.59233292 4.46271628 0 2 C0 1.34 0 0.68 0 0 Z " fill="#5DA2CA" transform="translate(294,127)"/>
<path d="M0 0 C0.33 0 0.66 0 1 0 C1 16.5 1 33 1 50 C0.01 49.67 -0.98 49.34 -2 49 C-1.835 47.71867187 -1.67 46.43734375 -1.5 45.1171875 C-0.94340125 40.09799948 -0.92742519 35.16847184 -1 30.125 C-1.07964606 20.05067813 -0.64329058 10.0514153 0 0 Z " fill="#508AB1" transform="translate(159,215)"/>
<path d="M0 0 C0.66 0 1.32 0 2 0 C4.27192266 12.93262931 5.42269554 24.92148558 4 38 C3.67 38 3.34 38 3 38 C2.95101563 36.77925781 2.90203125 35.55851562 2.8515625 34.30078125 C2.47172083 25.68548089 1.95730855 17.26294965 0.40234375 8.76171875 C-0.02823446 5.80619648 -0.06608311 2.98255091 0 0 Z " fill="#437B9B" transform="translate(324,186)"/>
<path d="M0 0 C-3.31296403 1.38862535 -6.64748195 2.70985857 -10 4 C-10.77988281 4.30808594 -11.55976563 4.61617188 -12.36328125 4.93359375 C-19.83930156 7.55962441 -27.17745707 7.28161155 -35 7 C-35 6.67 -35 6.34 -35 6 C-33.27716797 5.74476563 -33.27716797 5.74476563 -31.51953125 5.484375 C-22.91607902 4.15790882 -14.8218425 2.60313763 -6.6015625 -0.328125 C-3.90013842 -1.02579008 -2.58200603 -0.95448564 0 0 Z " fill="#27465F" transform="translate(249,311)"/>
<path d="M0 0 C6.27 0 12.54 0 19 0 C19 3.96 19 7.92 19 12 C18.67 12 18.34 12 18 12 C17.80508548 10.54263913 17.61930642 9.08405407 17.4375 7.625 C17.33308594 6.81289062 17.22867188 6.00078125 17.12109375 5.1640625 C17 3 17 3 18 1 C17.38125 1.165 16.7625 1.33 16.125 1.5 C11.74529271 2.20075317 7.42571011 2.07734251 3 2 C1.85149303 6.73879768 1.67098443 11.46291362 1.4375 16.3125 C1.39431641 17.14845703 1.35113281 17.98441406 1.30664062 18.84570312 C1.20114693 20.89696935 1.10012685 22.9484648 1 25 C0.67 25 0.34 25 0 25 C0 16.75 0 8.5 0 0 Z " fill="#4C88B3" transform="translate(217,233)"/>
<path d="M0 0 C0.98120464 3.05263664 0.98120464 4.94736336 0 8 C-0.99 8 -1.98 8 -3 8 C-3.0825 8.515625 -3.165 9.03125 -3.25 9.5625 C-4.12234506 12.39762144 -5.56849701 14.71207468 -7.078125 17.25 C-8.23531353 19.44669687 -8.70240608 21.54485016 -9 24 C-9.99 24 -10.98 24 -12 24 C-11.39361741 19.23162778 -9.4008089 15.58534526 -7.125 11.4375 C-6.77308594 10.77814453 -6.42117187 10.11878906 -6.05859375 9.43945312 C-4.24961011 6.09384213 -2.40146577 2.96784921 0 0 Z " fill="#2A4D64" transform="translate(120,146)"/>
<path d="M0 0 C2.50861008 2.24841805 3.80365368 4.34860295 5.15625 7.421875 C5.53910156 8.28296875 5.92195312 9.1440625 6.31640625 10.03125 C6.70699219 10.9284375 7.09757813 11.825625 7.5 12.75 C7.89058594 13.63171875 8.28117188 14.5134375 8.68359375 15.421875 C9.44632643 17.14765399 10.20302414 18.87611515 10.953125 20.60742188 C11.61140405 22.11188425 12.28620937 23.60933066 12.984375 25.09570312 C15.10613441 29.68159676 15.10613441 29.68159676 14 33 C12.15985884 29.10720293 10.3270161 25.21107802 8.50073242 21.31176758 C7.87900936 19.98694578 7.25533409 18.66303824 6.62963867 17.34008789 C5.72835338 15.43355042 4.83424115 13.52378792 3.94140625 11.61328125 C3.40201416 10.46641846 2.86262207 9.31955566 2.30688477 8.13793945 C1.15692337 5.37678612 0.44616659 2.94469948 0 0 Z " fill="#467DA8" transform="translate(173,227)"/>
<path d="M0 0 C0.66 0.33 1.32 0.66 2 1 C2 6.28 2 11.56 2 17 C1.67 17 1.34 17 1 17 C1 12.71 1 8.42 1 4 C-6.59 4 -14.18 4 -22 4 C-22 3.67 -22 3.34 -22 3 C-21.44014404 2.94465088 -20.88028809 2.88930176 -20.3034668 2.83227539 C-17.76444195 2.5792418 -15.225981 2.3209302 -12.6875 2.0625 C-11.80642578 1.97548828 -10.92535156 1.88847656 -10.01757812 1.79882812 C-8.74624023 1.66831055 -8.74624023 1.66831055 -7.44921875 1.53515625 C-6.27879028 1.41732788 -6.27879028 1.41732788 -5.0847168 1.29711914 C-2.81117999 1.03662003 -2.81117999 1.03662003 0 0 Z " fill="#5291B7" transform="translate(259,169)"/>
<path d="M0 0 C1.32 0.33 2.64 0.66 4 1 C4 1.99 4 2.98 4 4 C4.99 4.33 5.98 4.66 7 5 C7.33 5.66 7.66 6.32 8 7 C10.01669827 8.13350534 10.01669827 8.13350534 12 9 C12 9.66 12 10.32 12 11 C12.99 11.33 13.98 11.66 15 12 C15 12.66 15 13.32 15 14 C17.475 14.495 17.475 14.495 20 15 C20 15.99 20 16.98 20 18 C15.05061307 16.49568352 11.98761192 13.59617026 8.3125 10.125 C7.44141602 9.33029297 7.44141602 9.33029297 6.55273438 8.51953125 C3.74184691 5.90036906 1.37760729 3.67954464 0 0 Z " fill="#254159" transform="translate(127,280)"/>
<path d="M0 0 C2.68554688 0.73242188 2.68554688 0.73242188 5.37109375 1.46484375 C12.84015619 2.98529182 20.46627139 3.24004353 28.0625 3.5625 C29.02349609 3.60568359 29.98449219 3.64886719 30.97460938 3.69335938 C33.31630277 3.79821132 35.65807929 3.90037788 38 4 C38 4.33 38 4.66 38 5 C8.66352787 5.46260812 8.66352787 5.46260812 2 3 C1.34 2.01 0.68 1.02 0 0 Z " fill="#366387" transform="translate(179,314)"/>
<path d="M0 0 C0.33 0 0.66 0 1 0 C1.04898437 0.85464844 1.09796875 1.70929688 1.1484375 2.58984375 C1.22320312 3.69457031 1.29796875 4.79929688 1.375 5.9375 C1.44460938 7.03964844 1.51421875 8.14179688 1.5859375 9.27734375 C1.72257812 10.17582031 1.85921875 11.07429687 2 12 C2.66 12.33 3.32 12.66 4 13 C4.33 11.68 4.66 10.36 5 9 C5.66 9.33 6.32 9.66 7 10 C7 10.99 7 11.98 7 13 C8.45922693 12.88590407 9.91740598 12.75834456 11.375 12.625 C12.18710937 12.55539063 12.99921875 12.48578125 13.8359375 12.4140625 C16.20334191 12.17107412 16.20334191 12.17107412 18 10 C18 11.32 18 12.64 18 14 C12.06 14 6.12 14 0 14 C0 9.38 0 4.76 0 0 Z " fill="#5DAADA" transform="translate(261,172)"/>
<path d="M0 0 C3.57104439 1.87949705 5.54744301 3.17053157 7 7 C4.10765685 7.82638376 2.11257569 8 -1 8 C-1.625 5.6875 -1.625 5.6875 -2 3 C-1.34 2.01 -0.68 1.02 0 0 Z " fill="#263E4E" transform="translate(283,130)"/>
<path d="M0 0 C0.433125 0.66 0.86625 1.32 1.3125 2 C6.3012093 5.71252785 12.78103178 4.30087705 18.6875 3.5 C19.8321875 3.2525 19.8321875 3.2525 21 3 C21 3.99 21 4.98 21 6 C14.4 6 7.8 6 1 6 C0.67 4.02 0.34 2.04 0 0 Z " fill="#42759E" transform="translate(188,260)"/>
<path d="M0 0 C1.27450447 0.59638333 2.54446877 1.20247416 3.8125 1.8125 C4.52019531 2.14894531 5.22789062 2.48539062 5.95703125 2.83203125 C8.03293725 4.01883028 9.38981313 5.2480069 11 7 C11.721875 7.70125 12.44375 8.4025 13.1875 9.125 C15 11 15 11 15 12 C13.35 12 11.7 12 10 12 C10 11.34 10 10.68 10 10 C9.34 10 8.68 10 8 10 C7.690625 8.8553125 7.690625 8.8553125 7.375 7.6875 C5.57929296 4.17770897 3.56863688 3.47400219 0 2 C0 1.34 0 0.68 0 0 Z " fill="#539EC9" transform="translate(275,111)"/>
<path d="M0 0 C0.99 0.33 1.98 0.66 3 1 C-9.45224719 12 -9.45224719 12 -12 12 C-11.25 10.0625 -11.25 10.0625 -10 8 C-8.66666667 7.66666667 -7.33333333 7.33333333 -6 7 C-5.67 6.34 -5.34 5.68 -5 5 C-4 3 -4 3 -1.875 2.25 C-1.25625 2.1675 -0.6375 2.085 0 2 C0 1.34 0 0.68 0 0 Z " fill="#264157" transform="translate(281,288)"/>
<path d="M0 0 C0.33 1.32 0.66 2.64 1 4 C1.66 4.33 2.32 4.66 3 5 C2.979375 5.928125 2.95875 6.85625 2.9375 7.8125 C2.84230396 11.02286011 2.84230396 11.02286011 4 14 C3.01 15.485 3.01 15.485 2 17 C1.34 17 0.68 17 0 17 C0 11.39 0 5.78 0 0 Z " fill="#477EA7" transform="translate(260,230)"/>
<path d="M0 0 C1.51962505 3.97754207 0.53824962 7.6060742 -0.3125 11.625 C-0.50875977 12.6459375 -0.50875977 12.6459375 -0.70898438 13.6875 C-1.74308036 18.74308036 -1.74308036 18.74308036 -4 21 C-3.40546697 6.21867882 -3.40546697 6.21867882 0 0 Z " fill="#3D6885" transform="translate(326,226)"/>
<path d="M0 0 C1 2 1 2 0.25 4.6875 C-1.06548743 8.17354169 -2.53239615 11.57559102 -4 15 C-4.68836513 16.99263591 -5.36281399 18.99041337 -6 21 C-7.01543048 17.88673337 -7.00418529 16.18654308 -5.8203125 13.14453125 C-5.41619141 12.08782227 -5.41619141 12.08782227 -5.00390625 11.00976562 C-4.71386719 10.28466797 -4.42382812 9.55957031 -4.125 8.8125 C-3.84269531 8.07580078 -3.56039062 7.33910156 -3.26953125 6.58007812 C-1.16870301 1.16870301 -1.16870301 1.16870301 0 0 Z " fill="#305D79" transform="translate(101,159)"/>
<path d="M0 0 C-1.89192475 0.98669759 -3.78871978 1.9640602 -5.6875 2.9375 C-6.74324219 3.48277344 -7.79898437 4.02804687 -8.88671875 4.58984375 C-11.66234047 5.8470576 -14.00272126 6.56069569 -17 7 C-16.67 6.01 -16.34 5.02 -16 4 C-14.02416285 3.26480478 -12.01822402 2.60927518 -10 2 C-8.453125 1.1646875 -8.453125 1.1646875 -6.875 0.3125 C-3.72880026 -1.12380858 -3.12214056 -0.99828099 0 0 Z " fill="#366287" transform="translate(264,315)"/>
<path d="M0 0 C0.33 0 0.66 0 1 0 C1.05802698 3.43742918 1.09360486 6.87473253 1.125 10.3125 C1.14175781 11.28896484 1.15851563 12.26542969 1.17578125 13.27148438 C1.18222656 14.20927734 1.18867188 15.14707031 1.1953125 16.11328125 C1.20578613 16.97735596 1.21625977 17.84143066 1.22705078 18.73168945 C1 21 1 21 -1 24 C-1.70883546 19.90450621 -2.02300141 16.9783388 -1 13 C-0.7801777 10.75292759 -0.59516013 8.50228762 -0.4375 6.25 C-0.35371094 5.07953125 -0.26992188 3.9090625 -0.18359375 2.703125 C-0.12300781 1.81109375 -0.06242187 0.9190625 0 0 Z " fill="#5192B7" transform="translate(326,205)"/>
<path d="M0 0 C0 0.66 0 1.32 0 2 C-0.99 2 -1.98 2 -3 2 C-3 2.66 -3 3.32 -3 4 C-3.99 4 -4.98 4 -6 4 C-6 4.66 -6 5.32 -6 6 C-10.95 7.485 -10.95 7.485 -16 9 C-12.52836944 4.73936249 -5.68877082 0 0 0 Z " fill="#5191B7" transform="translate(165,99)"/>
<path d="M0 0 C5.6666765 -0.29785422 10.08825729 0.68918591 15.4375 2.5 C16.16904297 2.73847656 16.90058594 2.97695312 17.65429688 3.22265625 C19.4392116 3.80596172 21.22005557 4.40169935 23 5 C20.50935112 5.68707555 18.62113708 6 16 6 C16 5.34 16 4.68 16 4 C15.0925 4.04125 14.185 4.0825 13.25 4.125 C9.98062003 3.99925462 8.79278082 3.48366481 6 2 C4.00889599 1.61709538 2.00899487 1.27395385 0 1 C0 0.67 0 0.34 0 0 Z " fill="#46809E" transform="translate(230,93)"/>
<path d="M0 0 C1.33332095 2.6666419 0.67102033 4.16680303 0 7 C-0.66 7 -1.32 7 -2 7 C-1.773125 8.093125 -1.54625 9.18625 -1.3125 10.3125 C-1.209375 11.529375 -1.10625 12.74625 -1 14 C-2.48046875 15.73046875 -2.48046875 15.73046875 -4 17 C-4.37908343 10.80830398 -3.87999855 6.52959722 -1 1 C-0.67 0.67 -0.34 0.34 0 0 Z " fill="#58A5D1" transform="translate(100,166)"/>
<path d="M0 0 C2.22889496 -0.05428973 4.45817471 -0.09292338 6.6875 -0.125 C8.54955078 -0.15980469 8.54955078 -0.15980469 10.44921875 -0.1953125 C13.81237857 -0.01032021 15.9985587 0.54232105 19 2 C19 2.33 19 2.66 19 3 C16.20743781 2.88638398 13.41655882 2.7596411 10.625 2.625 C9.8309375 2.5940625 9.036875 2.563125 8.21875 2.53125 C2.2265625 2.2265625 2.2265625 2.2265625 0 0 Z " fill="#264057" transform="translate(185,315)"/>
<path d="M0 0 C0.66 0 1.32 0 2 0 C0.55575365 3.23861303 -1.25772247 5.61969163 -3.625 8.25 C-4.25664062 8.95640625 -4.88828125 9.6628125 -5.5390625 10.390625 C-6.02117187 10.92171875 -6.50328125 11.4528125 -7 12 C-7.33 11.01 -7.66 10.02 -8 9 C-6.71520959 7.49410612 -5.42195918 5.99542625 -4.125 4.5 C-3.04605469 3.24703125 -3.04605469 3.24703125 -1.9453125 1.96875 C-1.30335938 1.3190625 -0.66140625 0.669375 0 0 Z " fill="#274056" transform="translate(295,273)"/>
<path d="M0 0 C0.33 0 0.66 0 1 0 C1 6.93 1 13.86 1 21 C0.01 20.67 -0.98 20.34 -2 20 C-1.855625 18.741875 -1.71125 17.48375 -1.5625 16.1875 C-0.96183814 10.79870505 -0.47449461 5.40116209 0 0 Z " fill="#487EA7" transform="translate(159,244)"/>
<path d="M0 0 C5.11940422 3.90691374 5.83414946 7.49037742 6.73828125 13.76953125 C6.82464844 14.50558594 6.91101563 15.24164063 7 16 C4.99929568 13.43176064 3.29117815 10.90070197 1.8125 8 C1.46832031 7.34 1.12414062 6.68 0.76953125 6 C0 4 0 4 0 0 Z " fill="#3E6C94" transform="translate(98,250)"/>
<path d="M0 0 C1.86334304 7.2700925 1.86334304 7.2700925 -0.046875 11.09765625 C-1.28517666 13.16270637 -2.47383659 15.13623074 -4 17 C-4.66 17 -5.32 17 -6 17 C-4.14506608 11.28062041 -2.06896109 5.64444725 0 0 Z " fill="#467EA2" transform="translate(313,241)"/>
<path d="M0 0 C0.33 0.66 0.66 1.32 1 2 C-1.30482304 6.8755872 -2.98208429 9.63042869 -8 12 C-6.49087042 7.01987239 -3.44338151 3.75740058 0 0 Z " fill="#5093B4" transform="translate(118,133)"/>
<path d="M0 0 C0.99 0.33 1.98 0.66 3 1 C-4.11389522 8.66742597 -4.11389522 8.66742597 -9 10 C-9 9.01 -9 8.02 -9 7 C-6.46815512 4.64276511 -5.52809907 4 -2 4 C-2 3.01 -2 2.02 -2 1 C-1.34 0.67 -0.68 0.34 0 0 Z " fill="#3E698A" transform="translate(287,296)"/>
<path d="M0 0 C0.99 0 1.98 0 3 0 C1.68938409 4.23429756 0.05643741 8.07407404 -2 12 C-3.17790906 8.46627283 -2.82375082 6.59454905 -2 3 C-1.34 2.01 -0.68 1.02 0 0 Z " fill="#3D7090" transform="translate(315,257)"/>
<path d="M0 0 C4.61401459 3.25695147 8.00362438 7.24286757 11 12 C11 12.66 11 13.32 11 14 C10.01 14 9.02 14 8 14 C8 12.68 8 11.36 8 10 C7.34 10 6.68 10 6 10 C5.731875 9.195625 5.46375 8.39125 5.1875 7.5625 C4.795625 6.716875 4.40375 5.87125 4 5 C3.01 4.67 2.02 4.34 1 4 C0.3125 1.9375 0.3125 1.9375 0 0 Z " fill="#264C64" transform="translate(290,137)"/>
<path d="M0 0 C-0.763125 0.28875 -1.52625 0.5775 -2.3125 0.875 C-5.15029308 1.96269013 -5.15029308 1.96269013 -8 4 C-10.04296875 4.1953125 -10.04296875 4.1953125 -12.1875 4.125 C-14.0746875 4.063125 -14.0746875 4.063125 -16 4 C-13.71185277 1.71185277 -12.19248378 1.24548839 -9.125 0.3125 C-8.26132813 0.04050781 -7.39765625 -0.23148437 -6.5078125 -0.51171875 C-3.91305068 -1.01692938 -2.469215 -0.85561171 0 0 Z " fill="#4C81A6" transform="translate(185,94)"/>
<path d="M0 0 C0.99 0 1.98 0 3 0 C4.32 3.96 5.64 7.92 7 12 C6.01 12.495 6.01 12.495 5 13 C4.16209211 11.21046815 3.32980604 9.41830305 2.5 7.625 C1.80390625 6.12839844 1.80390625 6.12839844 1.09375 4.6015625 C0 2 0 2 0 0 Z " fill="#1B3748" transform="translate(174,182)"/>
<path d="M0 0 C3.99012371 0.55989303 6.5255052 1.75669768 9.8125 4.0625 C10.60269531 4.61035156 11.39289063 5.15820312 12.20703125 5.72265625 C12.79871094 6.14417969 13.39039063 6.56570312 14 7 C13.34 7.66 12.68 8.32 12 9 C7.125 6.25 7.125 6.25 6 4 C4.7625 3.505 4.7625 3.505 3.5 3 C1 2 1 2 0 0 Z " fill="#5199BF" transform="translate(261,103)"/>
<path d="M0 0 C0.33 0.66 0.66 1.32 1 2 C-0.14453125 4.78515625 -0.14453125 4.78515625 -1.8125 8.0625 C-2.35519531 9.14660156 -2.89789063 10.23070312 -3.45703125 11.34765625 C-5 14 -5 14 -7 15 C-5.34292168 9.35086937 -3.52237988 4.73699363 0 0 Z " fill="#274256" transform="translate(307,254)"/>
<path d="M0 0 C0.99 0.495 0.99 0.495 2 1 C2 1.66 2 2.32 2 3 C2.66 3 3.32 3 4 3 C3.67 2.01 3.34 1.02 3 0 C3.66 0 4.32 0 5 0 C5 3.3 5 6.6 5 10 C2.47671768 7.47671768 1.28600973 6.1655624 0 3 C0 2.01 0 1.02 0 0 Z " fill="#1E3546" transform="translate(183,202)"/>
<path d="M0 0 C2.46528135 0.39064415 3.73307988 0.73239371 5.51953125 2.5234375 C6.15955078 3.43996094 6.15955078 3.43996094 6.8125 4.375 C7.25207031 4.98085938 7.69164063 5.58671875 8.14453125 6.2109375 C9 8 9 8 8 11 C6.66375099 9.35653302 5.33107149 7.71016314 4 6.0625 C3.2575 5.14597656 2.515 4.22945313 1.75 3.28515625 C0 1 0 1 0 0 Z " fill="#224158" transform="translate(118,269)"/>
<path d="M0 0 C0.33 0.99 0.66 1.98 1 3 C1.66 3 2.32 3 3 3 C3 3.66 3 4.32 3 5 C3.66 5 4.32 5 5 5 C5.66 7.64 6.32 10.28 7 13 C1.26598465 7.56777494 1.26598465 7.56777494 0 4 C0 2.68 0 1.36 0 0 Z " fill="#35668D" transform="translate(106,265)"/>
<path d="M0 0 C5.70709064 0.46588495 9.15939723 1.93757784 14 5 C12 6 12 6 9.6875 5.29296875 C8.800625 4.92816406 7.91375 4.56335938 7 4.1875 C6.113125 3.83042969 5.22625 3.47335937 4.3125 3.10546875 C2 2 2 2 0 0 Z " fill="#326084" transform="translate(158,316)"/>
<path d="M0 0 C1.23593891 3.70781672 0.5678132 4.67510253 -0.9375 8.1875 C-1.31777344 9.08855469 -1.69804687 9.98960937 -2.08984375 10.91796875 C-2.54037109 11.94857422 -2.54037109 11.94857422 -3 13 C-3.33 13 -3.66 13 -4 13 C-4.125 10.125 -4.125 10.125 -4 7 C-3.34 6.34 -2.68 5.68 -2 5 C-1.29289322 3.35008418 -0.62056011 1.68437744 0 0 Z " fill="#264359" transform="translate(312,241)"/>
<path d="M0 0 C0.99 0.33 1.98 0.66 3 1 C0.69 3.31 -1.62 5.62 -4 8 C-4.66 7.01 -5.32 6.02 -6 5 C-5.34 4.34 -4.68 3.68 -4 3 C-3.01 3 -2.02 3 -1 3 C-0.67 2.01 -0.34 1.02 0 0 Z " fill="#3D6D90" transform="translate(295,288)"/>
<path d="M0 0 C0.99 0 1.98 0 3 0 C3.66 0.99 4.32 1.98 5 3 C5.99 3.33 6.98 3.66 8 4 C8.33 5.65 8.66 7.3 9 9 C4.56620325 6.78310162 2.53363068 4.22271781 0 0 Z " fill="#3B6B92" transform="translate(120,287)"/>
<path d="M0 0 C6.4 0.49230769 6.4 0.49230769 9.4375 3.0625 C10.2109375 4.0215625 10.2109375 4.0215625 11 5 C7.80389448 5 6.58282374 4.45328458 3.8125 3 C3.09707031 2.62875 2.38164062 2.2575 1.64453125 1.875 C1.10183594 1.58625 0.55914062 1.2975 0 1 C0 0.67 0 0.34 0 0 Z " fill="#27455D" transform="translate(152,302)"/>
<path d="M0 0 C0.99 0 1.98 0 3 0 C2.39009109 3.55780196 1.4216319 6.6828589 0 10 C-0.33 10 -0.66 10 -1 10 C-1.125 3.375 -1.125 3.375 0 0 Z " fill="#417998" transform="translate(319,247)"/>
<path d="M0 0 C0.99 0 1.98 0 3 0 C5.1875 2.5 5.1875 2.5 7 5 C6.67 5.66 6.34 6.32 6 7 C3.69 5.35 1.38 3.7 -1 2 C-0.67 1.34 -0.34 0.68 0 0 Z " fill="#5293B7" transform="translate(218,197)"/>
<path d="M0 0 C2.42130331 2.42130331 2.52840504 3.80111377 3.125 7.125 C3.29257812 8.03507813 3.46015625 8.94515625 3.6328125 9.8828125 C3.81457031 10.93082031 3.81457031 10.93082031 4 12 C3.34 12 2.68 12 2 12 C0.86235649 7.73383684 0 4.43513689 0 0 Z " fill="#3D6C8C" transform="translate(321,169)"/>
<path d="M0 0 C1 2 1 2 0.44140625 3.9453125 C0.15136719 4.66460937 -0.13867188 5.38390625 -0.4375 6.125 C-0.72496094 6.84945312 -1.01242188 7.57390625 -1.30859375 8.3203125 C-1.53675781 8.87460938 -1.76492187 9.42890625 -2 10 C-2.66 9.67 -3.32 9.34 -4 9 C-3.46930939 5.17902761 -2.50298434 2.93828597 0 0 Z " fill="#5798BC" transform="translate(107,149)"/>
<path d="M0 0 C0.99 0.33 1.98 0.66 3 1 C1.61122646 4.35620271 0.08322035 6.07298728 -3 8 C-3.66 8 -4.32 8 -5 8 C-3.62845496 5.04590299 -2.01136276 2.55991624 0 0 Z " fill="#283E4E" transform="translate(139,126)"/>
<path d="M0 0 C0.66 0.33 1.32 0.66 2 1 C1.360625 1.103125 0.72125 1.20625 0.0625 1.3125 C-0.618125 1.539375 -1.29875 1.76625 -2 2 C-2.33 2.99 -2.66 3.98 -3 5 C-5.64 5 -8.28 5 -11 5 C-7.41161963 3.13404221 -3.77010767 1.46615298 0 0 Z " fill="#3D698E" transform="translate(252,309)"/>
<path d="M0 0 C3 1 3 1 4.3125 2.8125 C5 5 5 5 4.125 7.25 C3.75375 7.8275 3.3825 8.405 3 9 C0 2.25 0 2.25 0 0 Z " fill="#55A4CF" transform="translate(314,157)"/>
<path d="M0 0 C0.66 0.33 1.32 0.66 2 1 C2 1.66 2 2.32 2 3 C2.61875 3.2475 3.2375 3.495 3.875 3.75 C6.35068687 5.20628639 6.95125002 6.37812506 8 9 C4.4213696 7.34832443 1.25179812 5.21713508 -2 3 C-1.34 2.67 -0.68 2.34 0 2 C0 1.34 0 0.68 0 0 Z " fill="#57A1CC" transform="translate(267,113)"/>
<path d="M0 0 C0 0.66 0 1.32 0 2 C-3.41831915 4.5393228 -5.75776898 5.3636198 -10 5 C-8.28489314 1.56978628 -3.75681361 0 0 0 Z " fill="#265168" transform="translate(170,108)"/>
<path d="M0 0 C-1.65 0.33 -3.3 0.66 -5 1 C-5 1.66 -5 2.32 -5 3 C-7.64 3 -10.28 3 -13 3 C-4.20833333 -1.55864198 -4.20833333 -1.55864198 0 0 Z " fill="#305570" transform="translate(183,105)"/>
<path d="M0 0 C0.66 0.66 1.32 1.32 2 2 C0.35 4.31 -1.3 6.62 -3 9 C-3.33 8.01 -3.66 7.02 -4 6 C-2.0625 2.8125 -2.0625 2.8125 0 0 Z " fill="#427CA4" transform="translate(303,265)"/>
<path d="M0 0 C0.33 0 0.66 0 1 0 C1 1.98 1 3.96 1 6 C0.34 6 -0.32 6 -1 6 C-1.33 7.32 -1.66 8.64 -2 10 C-2.1953125 3.9453125 -2.1953125 3.9453125 -2 2 C-1.34 1.34 -0.68 0.68 0 0 Z " fill="#4A89A7" transform="translate(95,179)"/>
<path d="M0 0 C3.0916909 2.52956528 3.90931332 5.22454612 5 9 C4.34 9 3.68 9 3 9 C0 3.375 0 3.375 0 0 Z " fill="#4B85AD" transform="translate(173,227)"/>
<path d="M0 0 C3.60296594 -0.41176754 4.78402067 -0.1535853 7.8125 2 C8.534375 2.66 9.25625 3.32 10 4 C3.47692308 3.38461538 3.47692308 3.38461538 1.0625 1.4375 C0.711875 0.963125 0.36125 0.48875 0 0 Z " fill="#539EC4" transform="translate(251,99)"/>
<path d="M0 0 C2.50298434 2.93828597 3.46930939 5.17902761 4 9 C2 7.875 2 7.875 0 6 C-0.25 2.8125 -0.25 2.8125 0 0 Z " fill="#5394B9" transform="translate(170,175)"/>
<path d="M0 0 C0.99 0 1.98 0 3 0 C3.33 0.99 3.66 1.98 4 3 C3.01 3.99 2.02 4.98 1 6 C0.34 5.01 -0.32 4.02 -1 3 C-0.67 2.01 -0.34 1.02 0 0 Z " fill="#55B9E4" transform="translate(300,135)"/>
<path d="M0 0 C1.32 0.33 2.64 0.66 4 1 C1.03 3.475 1.03 3.475 -2 6 C-2 4.68 -2 3.36 -2 2 C-1.34 2 -0.68 2 0 2 C0 1.34 0 0.68 0 0 Z " fill="#5FA6D0" transform="translate(131,129)"/>
</svg>
